<svg xmlns="http://www.w3.org/2000/svg" xmlns:xlink="http://www.w3.org/1999/xlink" width="57" height="67" viewBox="0 0 57 67">
    <defs>
        <path id="a" d="M28.25 42.746c-11.805 0-21.374-9.57-21.374-21.373C6.876 9.569 16.446 0 28.25 0c11.804 0 21.373 9.569 21.373 21.373s-9.57 21.373-21.373 21.373zM15.295 28.497c2.117 5.613 6.435 8.42 12.953 8.42s10.836-2.807 12.953-8.42H15.296zM.024 67c-.229-3.843 1.179-8.02 4.223-12.532 3.045-4.512 6.926-7.553 11.644-9.122 4.786 2.824 8.993 4.236 12.621 4.236s7.627-1.412 11.997-4.236c4.846 1.588 8.744 4.629 11.693 9.122C55.152 58.961 56.75 63.138 57 67H.024z"/>
    </defs>
    <use fill="#B8B8B8" fill-rule="evenodd" xlink:href="#a"/>
</svg>
